<?xml version="1.0" encoding="utf-8" standalone="no"?>
<!DOCTYPE svg PUBLIC "-//W3C//DTD SVG 1.1//EN"
  "http://www.w3.org/Graphics/SVG/1.1/DTD/svg11.dtd">
<svg xmlns:xlink="http://www.w3.org/1999/xlink" width="245.120313pt" height="180.65625pt" viewBox="0 0 245.120313 180.65625" xmlns="http://www.w3.org/2000/svg" version="1.1">
 <metadata>
  <rdf:RDF xmlns:dc="http://purl.org/dc/elements/1.1/" xmlns:cc="http://creativecommons.org/ns#" xmlns:rdf="http://www.w3.org/1999/02/22-rdf-syntax-ns#">
   <cc:Work>
    <dc:type rdf:resource="http://purl.org/dc/dcmitype/StillImage"/>
    <dc:date>2023-08-18T07:02:10.754456</dc:date>
    <dc:format>image/svg+xml</dc:format>
    <dc:creator>
     <cc:Agent>
      <dc:title>Matplotlib v3.5.1, https://matplotlib.org/</dc:title>
     </cc:Agent>
    </dc:creator>
   </cc:Work>
  </rdf:RDF>
 </metadata>
 <defs>
  <style type="text/css">*{stroke-linejoin: round; stroke-linecap: butt}</style>
 </defs>
 <g id="figure_1">
  <g id="patch_1">
   <path d="M 0 180.65625 
L 245.120313 180.65625 
L 245.120313 0 
L 0 0 
L 0 180.65625 
z
" style="fill: none"/>
  </g>
  <g id="axes_1">
   <g id="patch_2">
    <path d="M 42.620312 143.1 
L 237.920313 143.1 
L 237.920313 7.2 
L 42.620312 7.2 
z
" style="fill: #ffffff"/>
   </g>
   <g id="matplotlib.axis_1">
    <g id="xtick_1">
     <g id="line2d_1">
      <defs>
       <path id="ma7811b720e" d="M 0 0 
L 0 3.5 
" style="stroke: #000000; stroke-width: 0.8"/>
      </defs>
      <g>
       <use xlink:href="#ma7811b720e" x="88.39375" y="143.1" style="stroke: #000000; stroke-width: 0.8"/>
      </g>
     </g>
     <g id="text_1">
      <!-- −4 -->
      <g transform="translate(81.022656 157.698438)scale(0.1 -0.1)">
       <defs>
        <path id="DejaVuSans-2212" d="M 678 2272 
L 4684 2272 
L 4684 1741 
L 678 1741 
L 678 2272 
z
" transform="scale(0.015625)"/>
        <path id="DejaVuSans-34" d="M 2419 4116 
L 825 1625 
L 2419 1625 
L 2419 4116 
z
M 2253 4666 
L 3047 4666 
L 3047 1625 
L 3713 1625 
L 3713 1100 
L 3047 1100 
L 3047 0 
L 2419 0 
L 2419 1100 
L 313 1100 
L 313 1709 
L 2253 4666 
z
" transform="scale(0.015625)"/>
       </defs>
       <use xlink:href="#DejaVuSans-2212"/>
       <use xlink:href="#DejaVuSans-34" x="83.789062"/>
      </g>
     </g>
    </g>
    <g id="xtick_2">
     <g id="line2d_2">
      <g>
       <use xlink:href="#ma7811b720e" x="149.425" y="143.1" style="stroke: #000000; stroke-width: 0.8"/>
      </g>
     </g>
     <g id="text_2">
      <!-- −2 -->
      <g transform="translate(142.053907 157.698438)scale(0.1 -0.1)">
       <defs>
        <path id="DejaVuSans-32" d="M 1228 531 
L 3431 531 
L 3431 0 
L 469 0 
L 469 531 
Q 828 903 1448 1529 
Q 2069 2156 2228 2338 
Q 2531 2678 2651 2914 
Q 2772 3150 2772 3378 
Q 2772 3750 2511 3984 
Q 2250 4219 1831 4219 
Q 1534 4219 1204 4116 
Q 875 4013 500 3803 
L 500 4441 
Q 881 4594 1212 4672 
Q 1544 4750 1819 4750 
Q 2544 4750 2975 4387 
Q 3406 4025 3406 3419 
Q 3406 3131 3298 2873 
Q 3191 2616 2906 2266 
Q 2828 2175 2409 1742 
Q 1991 1309 1228 531 
z
" transform="scale(0.015625)"/>
       </defs>
       <use xlink:href="#DejaVuSans-2212"/>
       <use xlink:href="#DejaVuSans-32" x="83.789062"/>
      </g>
     </g>
    </g>
    <g id="xtick_3">
     <g id="line2d_3">
      <g>
       <use xlink:href="#ma7811b720e" x="210.456251" y="143.1" style="stroke: #000000; stroke-width: 0.8"/>
      </g>
     </g>
     <g id="text_3">
      <!-- 0 -->
      <g transform="translate(207.275001 157.698438)scale(0.1 -0.1)">
       <defs>
        <path id="DejaVuSans-30" d="M 2034 4250 
Q 1547 4250 1301 3770 
Q 1056 3291 1056 2328 
Q 1056 1369 1301 889 
Q 1547 409 2034 409 
Q 2525 409 2770 889 
Q 3016 1369 3016 2328 
Q 3016 3291 2770 3770 
Q 2525 4250 2034 4250 
z
M 2034 4750 
Q 2819 4750 3233 4129 
Q 3647 3509 3647 2328 
Q 3647 1150 3233 529 
Q 2819 -91 2034 -91 
Q 1250 -91 836 529 
Q 422 1150 422 2328 
Q 422 3509 836 4129 
Q 1250 4750 2034 4750 
z
" transform="scale(0.015625)"/>
       </defs>
       <use xlink:href="#DejaVuSans-30"/>
      </g>
     </g>
    </g>
    <g id="text_4">
     <!-- x1 -->
     <g transform="translate(134.129687 171.376563)scale(0.1 -0.1)">
      <defs>
       <path id="DejaVuSans-78" d="M 3513 3500 
L 2247 1797 
L 3578 0 
L 2900 0 
L 1881 1375 
L 863 0 
L 184 0 
L 1544 1831 
L 300 3500 
L 978 3500 
L 1906 2253 
L 2834 3500 
L 3513 3500 
z
" transform="scale(0.015625)"/>
       <path id="DejaVuSans-31" d="M 794 531 
L 1825 531 
L 1825 4091 
L 703 3866 
L 703 4441 
L 1819 4666 
L 2450 4666 
L 2450 531 
L 3481 531 
L 3481 0 
L 794 0 
L 794 531 
z
" transform="scale(0.015625)"/>
      </defs>
      <use xlink:href="#DejaVuSans-78"/>
      <use xlink:href="#DejaVuSans-31" x="59.179688"/>
     </g>
    </g>
   </g>
   <g id="matplotlib.axis_2">
    <g id="ytick_1">
     <g id="line2d_4">
      <defs>
       <path id="md551d3c23f" d="M 0 0 
L -3.5 0 
" style="stroke: #000000; stroke-width: 0.8"/>
      </defs>
      <g>
       <use xlink:href="#md551d3c23f" x="42.620312" y="120.784729" style="stroke: #000000; stroke-width: 0.8"/>
      </g>
     </g>
     <g id="text_5">
      <!-- −2 -->
      <g transform="translate(20.878125 124.583948)scale(0.1 -0.1)">
       <use xlink:href="#DejaVuSans-2212"/>
       <use xlink:href="#DejaVuSans-32" x="83.789062"/>
      </g>
     </g>
    </g>
    <g id="ytick_2">
     <g id="line2d_5">
      <g>
       <use xlink:href="#md551d3c23f" x="42.620312" y="76.154187" style="stroke: #000000; stroke-width: 0.8"/>
      </g>
     </g>
     <g id="text_6">
      <!-- 0 -->
      <g transform="translate(29.257812 79.953406)scale(0.1 -0.1)">
       <use xlink:href="#DejaVuSans-30"/>
      </g>
     </g>
    </g>
    <g id="ytick_3">
     <g id="line2d_6">
      <g>
       <use xlink:href="#md551d3c23f" x="42.620312" y="31.523645" style="stroke: #000000; stroke-width: 0.8"/>
      </g>
     </g>
     <g id="text_7">
      <!-- 2 -->
      <g transform="translate(29.257812 35.322864)scale(0.1 -0.1)">
       <use xlink:href="#DejaVuSans-32"/>
      </g>
     </g>
    </g>
    <g id="text_8">
     <!-- x2 -->
     <g transform="translate(14.798437 81.290625)rotate(-90)scale(0.1 -0.1)">
      <use xlink:href="#DejaVuSans-78"/>
      <use xlink:href="#DejaVuSans-32" x="59.179688"/>
     </g>
    </g>
   </g>
   <g id="line2d_7">
    <path d="M 57.878125 120.784729 
L 76.1875 13.671429 
L 96.877094 136.851724 
L 115.678991 21.972709 
L 131.752737 123.288502 
L 145.215595 35.495094 
L 156.410188 111.128565 
L 165.694364 46.098425 
L 173.386834 101.974719 
L 179.758282 53.974517 
L 185.0349 95.205676 
L 189.404616 59.789893 
L 193.023242 90.210253 
L 196.019859 64.080785 
L 198.50138 86.524583 
L 200.556345 67.246582 
L 202.258075 83.805334 
L 203.667289 69.58227 
L 204.834267 81.799106 
L 205.80065 71.30551 
L 206.600918 80.318936 
" clip-path="url(#p4e59ddec63)" style="fill: none; stroke: #ff7f0e; stroke-width: 1.5; stroke-linecap: square"/>
    <defs>
     <path id="m646e15f0a3" d="M 0 3 
C 0.795609 3 1.55874 2.683901 2.12132 2.12132 
C 2.683901 1.55874 3 0.795609 3 0 
C 3 -0.795609 2.683901 -1.55874 2.12132 -2.12132 
C 1.55874 -2.683901 0.795609 -3 0 -3 
C -0.795609 -3 -1.55874 -2.683901 -2.12132 -2.12132 
C -2.683901 -1.55874 -3 -0.795609 -3 0 
C -3 0.795609 -2.683901 1.55874 -2.12132 2.12132 
C -1.55874 2.683901 -0.795609 3 0 3 
z
" style="stroke: #ff7f0e"/>
    </defs>
    <g clip-path="url(#p4e59ddec63)">
     <use xlink:href="#m646e15f0a3" x="57.878125" y="120.784729" style="fill: #ff7f0e; stroke: #ff7f0e"/>
     <use xlink:href="#m646e15f0a3" x="76.1875" y="13.671429" style="fill: #ff7f0e; stroke: #ff7f0e"/>
     <use xlink:href="#m646e15f0a3" x="96.877094" y="136.851724" style="fill: #ff7f0e; stroke: #ff7f0e"/>
     <use xlink:href="#m646e15f0a3" x="115.678991" y="21.972709" style="fill: #ff7f0e; stroke: #ff7f0e"/>
     <use xlink:href="#m646e15f0a3" x="131.752737" y="123.288502" style="fill: #ff7f0e; stroke: #ff7f0e"/>
     <use xlink:href="#m646e15f0a3" x="145.215595" y="35.495094" style="fill: #ff7f0e; stroke: #ff7f0e"/>
     <use xlink:href="#m646e15f0a3" x="156.410188" y="111.128565" style="fill: #ff7f0e; stroke: #ff7f0e"/>
     <use xlink:href="#m646e15f0a3" x="165.694364" y="46.098425" style="fill: #ff7f0e; stroke: #ff7f0e"/>
     <use xlink:href="#m646e15f0a3" x="173.386834" y="101.974719" style="fill: #ff7f0e; stroke: #ff7f0e"/>
     <use xlink:href="#m646e15f0a3" x="179.758282" y="53.974517" style="fill: #ff7f0e; stroke: #ff7f0e"/>
     <use xlink:href="#m646e15f0a3" x="185.0349" y="95.205676" style="fill: #ff7f0e; stroke: #ff7f0e"/>
     <use xlink:href="#m646e15f0a3" x="189.404616" y="59.789893" style="fill: #ff7f0e; stroke: #ff7f0e"/>
     <use xlink:href="#m646e15f0a3" x="193.023242" y="90.210253" style="fill: #ff7f0e; stroke: #ff7f0e"/>
     <use xlink:href="#m646e15f0a3" x="196.019859" y="64.080785" style="fill: #ff7f0e; stroke: #ff7f0e"/>
     <use xlink:href="#m646e15f0a3" x="198.50138" y="86.524583" style="fill: #ff7f0e; stroke: #ff7f0e"/>
     <use xlink:href="#m646e15f0a3" x="200.556345" y="67.246582" style="fill: #ff7f0e; stroke: #ff7f0e"/>
     <use xlink:href="#m646e15f0a3" x="202.258075" y="83.805334" style="fill: #ff7f0e; stroke: #ff7f0e"/>
     <use xlink:href="#m646e15f0a3" x="203.667289" y="69.58227" style="fill: #ff7f0e; stroke: #ff7f0e"/>
     <use xlink:href="#m646e15f0a3" x="204.834267" y="81.799106" style="fill: #ff7f0e; stroke: #ff7f0e"/>
     <use xlink:href="#m646e15f0a3" x="205.80065" y="71.30551" style="fill: #ff7f0e; stroke: #ff7f0e"/>
     <use xlink:href="#m646e15f0a3" x="206.600918" y="80.318936" style="fill: #ff7f0e; stroke: #ff7f0e"/>
    </g>
   </g>
   <g id="PathCollection_1"/>
   <g id="PathCollection_2">
    <path d="M 97.100868 56.070444 
L 94.496869 56.490497 
L 91.44531 56.995871 
L 88.393757 57.514372 
L 85.342191 58.046001 
L 83.908323 58.30197 
L 82.290631 58.62926 
L 79.239071 59.261526 
L 76.187512 59.908668 
L 73.307377 60.533498 
L 73.135938 60.576413 
L 70.084378 61.357446 
L 67.032818 62.155645 
L 64.752171 62.765024 
L 63.981244 63.008465 
L 60.929685 63.992365 
L 57.878125 64.996552 
L 54.826565 66.248684 
L 52.48604 67.228079 
L 51.775006 67.610622 
L 48.723432 69.284276 
L 48.409729 69.459606 
L 45.671872 71.601873 
L 45.55989 71.691133 
L 43.880133 73.922661 
L 43.320214 76.154188 
L 43.880133 78.385715 
L 45.55989 80.617242 
L 45.671872 80.706502 
L 48.409729 82.848769 
L 48.723432 83.024098 
L 51.775006 84.697753 
L 52.486042 85.080296 
L 54.826565 86.059689 
L 57.878125 87.311823 
L 60.929685 88.31601 
L 63.981244 89.299909 
L 64.752171 89.54335 
L 67.032818 90.152729 
L 70.084378 90.950929 
L 73.135938 91.731962 
L 73.307377 91.774877 
L 76.187512 92.399707 
L 79.239071 93.046849 
L 82.290631 93.679115 
L 83.908319 94.006403 
L 85.342191 94.262373 
L 88.393757 94.794003 
L 91.44531 95.312502 
L 94.496869 95.817878 
L 97.100868 96.237931 
L 97.548436 96.302528 
L 100.599996 96.731216 
L 103.651563 97.14816 
L 106.703122 97.553357 
L 109.754682 97.94681 
L 112.806249 98.328519 
L 113.968755 98.469458 
L 115.857816 98.676672 
L 118.909375 99.000774 
L 121.960942 99.314251 
L 125.012502 99.617101 
L 128.064069 99.909325 
L 131.115628 100.190923 
L 134.167188 100.461893 
L 136.969651 100.700986 
L 137.218755 100.72039 
L 140.270314 100.948394 
L 143.321874 101.166696 
L 146.373441 101.375295 
L 149.425 101.574191 
L 152.476564 101.763386 
L 155.528127 101.942879 
L 158.57969 102.112669 
L 161.631253 102.272756 
L 164.682813 102.423143 
L 167.734376 102.563825 
L 170.785939 102.694807 
L 173.837499 102.816085 
L 176.889062 102.927661 
L 177.034329 102.932511 
L 179.940626 103.021774 
L 182.992189 103.106571 
L 186.04375 103.182444 
L 189.095313 103.249389 
L 192.146877 103.307409 
L 195.198438 103.356502 
L 198.250001 103.39667 
L 201.301564 103.427911 
L 204.353126 103.450227 
L 207.404689 103.463616 
L 210.456251 103.468079 
L 213.507813 103.463616 
L 216.559376 103.450227 
L 219.610939 103.427911 
L 222.662501 103.39667 
L 225.714063 103.356502 
L 228.765626 103.307409 
L 231.817188 103.249389 
L 234.868751 103.182444 
L 237.920313 103.106571 
" clip-path="url(#p4e59ddec63)" style="fill: none; stroke: #1f77b4; stroke-width: 1.5"/>
   </g>
   <g id="PathCollection_3">
    <path d="M 42.620312 103.356502 
L 45.671872 103.842976 
L 48.723432 104.32052 
L 51.775006 104.789143 
L 54.263642 105.164038 
L 54.826565 105.242557 
L 57.878125 105.659934 
L 60.929685 106.069047 
L 63.981244 106.469895 
L 67.032818 106.86248 
L 70.084378 107.246799 
L 71.29158 107.395566 
L 73.135938 107.607177 
L 76.187512 107.949602 
L 79.239071 108.284331 
L 82.290631 108.611365 
L 85.342191 108.930704 
L 88.393757 109.242348 
L 91.44531 109.546297 
L 92.277553 109.627094 
L 94.496869 109.82865 
L 97.548436 110.098594 
L 100.599996 110.361338 
L 103.651563 110.616884 
L 106.703122 110.86523 
L 109.754682 111.106379 
L 112.806249 111.340329 
L 115.857816 111.567082 
L 118.909375 111.786635 
L 119.943828 111.858621 
L 121.960942 111.990483 
L 125.012502 112.183206 
L 128.064069 112.369166 
L 131.115628 112.548365 
L 134.167188 112.720801 
L 137.218755 112.886476 
L 140.270314 113.045388 
L 143.321874 113.197536 
L 146.373441 113.342924 
L 149.425 113.481549 
L 152.476564 113.613412 
L 155.528127 113.738514 
L 158.57969 113.856852 
L 161.631253 113.968428 
L 164.682813 114.073243 
L 165.20896 114.090149 
L 167.734376 114.166657 
L 170.785939 114.25273 
L 173.837499 114.332428 
L 176.889062 114.40575 
L 179.940626 114.472696 
L 182.992189 114.533266 
L 186.04375 114.587459 
L 189.095313 114.635279 
L 192.146877 114.676722 
L 195.198438 114.711787 
L 198.250001 114.740479 
L 201.301564 114.762795 
L 204.353126 114.778733 
L 207.404689 114.788297 
L 210.456251 114.791485 
L 213.507813 114.788297 
L 216.559376 114.778733 
L 219.610939 114.762795 
L 222.662501 114.740479 
L 225.714063 114.711787 
L 228.765626 114.676722 
L 231.817188 114.635279 
L 234.868751 114.587459 
L 237.920313 114.533266 
" clip-path="url(#p4e59ddec63)" style="fill: none; stroke: #1f77b4; stroke-width: 1.5"/>
   </g>
   <g id="PathCollection_4">
    <path d="M 42.620312 114.711787 
L 45.671872 115.059268 
L 48.723432 115.400372 
L 51.775006 115.735103 
L 54.826565 116.063456 
L 57.27387 116.321676 
L 57.878125 116.381986 
L 60.929685 116.680529 
L 63.981244 116.973039 
L 67.032818 117.25952 
L 70.084378 117.539968 
L 73.135938 117.814385 
L 76.187512 118.082773 
L 79.239071 118.345128 
L 81.716227 118.553204 
L 82.290631 118.598978 
L 85.342191 118.836434 
L 88.393757 119.06817 
L 91.44531 119.294183 
L 94.496869 119.514475 
L 97.548436 119.729044 
L 100.599996 119.937892 
L 103.651563 120.141019 
L 106.703122 120.338424 
L 109.754682 120.530107 
L 112.806249 120.716066 
L 113.968764 120.784729 
L 115.857816 120.890861 
L 118.909375 121.056867 
L 121.960942 121.217428 
L 125.012502 121.372545 
L 128.064069 121.522221 
L 131.115628 121.666455 
L 134.167188 121.805244 
L 137.218755 121.938591 
L 140.270314 122.066495 
L 143.321874 122.188957 
L 146.373441 122.305977 
L 149.425 122.417554 
L 152.476564 122.523686 
L 155.528127 122.624376 
L 158.57969 122.719627 
L 161.631253 122.809432 
L 164.682813 122.893792 
L 167.734376 122.972713 
L 169.542874 123.016259 
L 170.785939 123.044799 
L 173.837499 123.109668 
L 176.889062 123.169348 
L 179.940626 123.223838 
L 182.992189 123.27314 
L 186.04375 123.317252 
L 189.095313 123.356175 
L 192.146877 123.389906 
L 195.198438 123.41845 
L 198.250001 123.441803 
L 201.301564 123.459967 
L 204.353126 123.472941 
L 207.404689 123.480723 
L 210.456251 123.483319 
L 213.507813 123.480723 
L 216.559376 123.472941 
L 219.610939 123.459967 
L 222.662501 123.441803 
L 225.714063 123.41845 
L 228.765626 123.389906 
L 231.817188 123.356175 
L 234.868751 123.317252 
L 237.920313 123.27314 
" clip-path="url(#p4e59ddec63)" style="fill: none; stroke: #1f77b4; stroke-width: 1.5"/>
   </g>
   <g id="PathCollection_5">
    <path d="M 42.620312 123.41845 
L 45.671872 123.701282 
L 48.723432 123.978926 
L 51.775006 124.251381 
L 54.826565 124.518645 
L 57.878125 124.780719 
L 60.929685 125.037605 
L 63.477901 125.247784 
L 63.981244 125.287455 
L 67.032818 125.523006 
L 70.084378 125.753596 
L 73.135938 125.979229 
L 76.187512 126.199902 
L 79.239071 126.415616 
L 82.290631 126.626371 
L 85.342191 126.832168 
L 88.393757 127.033006 
L 91.44531 127.228883 
L 94.496869 127.419802 
L 95.47338 127.479309 
L 97.548436 127.600381 
L 100.599996 127.77368 
L 103.651563 127.942232 
L 106.703122 128.106036 
L 109.754682 128.265093 
L 112.806249 128.4194 
L 115.857816 128.568959 
L 118.909375 128.713773 
L 121.960942 128.853837 
L 125.012502 128.989152 
L 128.064069 129.11972 
L 131.115628 129.245542 
L 134.167188 129.366613 
L 137.218755 129.482937 
L 140.270314 129.594513 
L 143.321874 129.701342 
L 143.605786 129.71084 
L 146.373441 129.799644 
L 149.425 129.893005 
L 152.476564 129.981809 
L 155.528127 130.06606 
L 158.57969 130.145759 
L 161.631253 130.220903 
L 164.682813 130.29149 
L 167.734376 130.357525 
L 170.785939 130.419007 
L 173.837499 130.475933 
L 176.889062 130.528305 
L 179.940626 130.576123 
L 182.992189 130.619388 
L 186.04375 130.658098 
L 189.095313 130.692255 
L 192.146877 130.721856 
L 195.198438 130.746905 
L 198.250001 130.767398 
L 201.301564 130.783338 
L 204.353126 130.794723 
L 207.404689 130.801553 
L 210.456251 130.803831 
L 213.507813 130.801553 
L 216.559376 130.794723 
L 219.610939 130.783338 
L 222.662501 130.767398 
L 225.714063 130.746905 
L 228.765626 130.721856 
L 231.817188 130.692255 
L 234.868751 130.658098 
L 237.920313 130.619388 
" clip-path="url(#p4e59ddec63)" style="fill: none; stroke: #1f77b4; stroke-width: 1.5"/>
   </g>
   <g id="PathCollection_6">
    <path d="M 42.620312 130.746905 
L 45.671872 130.995104 
L 48.723432 131.238751 
L 51.775006 131.477844 
L 54.826565 131.712381 
L 57.878125 131.942365 
L 60.929685 132.158954 
L 63.981244 132.371168 
L 67.032818 132.579007 
L 70.084378 132.782469 
L 73.135938 132.981557 
L 76.187512 133.176269 
L 79.239071 133.366605 
L 82.290631 133.552565 
L 85.342191 133.734151 
L 88.393757 133.911361 
L 91.44531 134.084194 
L 93.070112 134.173889 
L 94.496869 134.24968 
L 97.548436 134.40757 
L 100.599996 134.561251 
L 103.651563 134.710721 
L 106.703122 134.855981 
L 109.754682 134.997031 
L 112.806249 135.133869 
L 115.857816 135.266498 
L 118.909375 135.394917 
L 121.960942 135.519124 
L 125.012502 135.63912 
L 128.064069 135.754907 
L 131.115628 135.866484 
L 134.167188 135.973849 
L 137.218755 136.077004 
L 140.270314 136.175949 
L 143.321874 136.270684 
L 146.373441 136.361209 
L 147.936485 136.40542 
L 149.425 136.445992 
L 152.476564 136.525109 
L 155.528127 136.600169 
L 158.57969 136.671174 
L 161.631253 136.738119 
L 164.682813 136.801006 
L 167.734376 136.859838 
L 170.785939 136.914613 
L 173.837499 136.965329 
L 176.889062 137.011987 
L 179.940626 137.054589 
L 182.992189 137.093134 
L 186.04375 137.127621 
L 189.095313 137.158052 
L 192.146877 137.184424 
L 195.198438 137.20674 
L 198.250001 137.224998 
L 201.301564 137.239198 
L 204.353126 137.249342 
L 207.404689 137.255427 
L 210.456251 137.257456 
L 213.507813 137.255427 
L 216.559376 137.249342 
L 219.610939 137.239198 
L 222.662501 137.224998 
L 225.714063 137.20674 
L 228.765626 137.184424 
L 231.817188 137.158052 
L 234.868751 137.127621 
L 237.920313 137.093134 
" clip-path="url(#p4e59ddec63)" style="fill: none; stroke: #1f77b4; stroke-width: 1.5"/>
   </g>
   <g id="PathCollection_7">
    <path d="M 42.620312 137.206738 
L 45.671872 137.427865 
L 48.723432 137.644928 
L 51.775006 137.857941 
L 54.826565 138.066894 
L 57.878125 138.271785 
L 60.929685 138.472624 
L 63.477871 138.636945 
L 63.981244 138.668266 
L 67.032818 138.854225 
L 70.084378 139.036272 
L 73.135938 139.214402 
L 76.187512 139.388619 
L 79.239071 139.558919 
L 82.290631 139.725305 
L 85.342191 139.887775 
L 88.393757 140.046331 
L 91.44531 140.200971 
L 94.496869 140.351697 
L 97.548436 140.498509 
L 100.599996 140.641405 
L 103.651563 140.780385 
L 105.641791 140.868475 
L 106.703122 140.913859 
L 109.754682 141.040563 
L 112.806249 141.163487 
L 115.857816 141.282628 
L 118.909375 141.397988 
L 121.960942 141.509564 
L 125.012502 141.617357 
L 128.064069 141.721369 
L 131.115628 141.821598 
L 134.167188 141.918047 
L 137.218755 142.010711 
L 140.270314 142.099596 
L 143.321874 142.184697 
L 146.373441 142.266014 
L 149.425 142.343551 
L 152.476564 142.417304 
L 155.528127 142.487276 
L 158.57969 142.553466 
L 161.631253 142.615871 
L 164.682813 142.674496 
L 167.734376 142.729341 
L 170.785939 142.780399 
L 173.837499 142.82768 
L 176.889062 142.871173 
L 179.940626 142.910887 
L 182.992189 142.94682 
L 186.04375 142.97897 
L 189.095313 143.007335 
L 192.146877 143.031921 
L 195.198438 143.052723 
L 198.250001 143.069741 
L 201.301564 143.082978 
L 204.353126 143.092436 
L 207.404689 143.09811 
L 210.456251 143.1 
" clip-path="url(#p4e59ddec63)" style="fill: none; stroke: #1f77b4; stroke-width: 1.5"/>
    <path d="M 210.456251 143.1 
L 213.507813 143.09811 
L 216.559376 143.092436 
L 219.610939 143.082978 
L 222.662501 143.069741 
L 225.714063 143.052723 
L 228.765626 143.031921 
L 231.817188 143.007335 
L 234.868751 142.97897 
L 237.920313 142.94682 
" clip-path="url(#p4e59ddec63)" style="fill: none; stroke: #1f77b4; stroke-width: 1.5"/>
   </g>
   <g id="PathCollection_8">
    <path d="M 42.620312 143.052723 
L 43.320206 143.1 
" clip-path="url(#p4e59ddec63)" style="fill: none; stroke: #1f77b4; stroke-width: 1.5"/>
   </g>
   <g id="PathCollection_9"/>
   <g id="patch_3">
    <path d="M 42.620312 143.1 
L 42.620312 7.2 
" style="fill: none; stroke: #000000; stroke-width: 0.8; stroke-linejoin: miter; stroke-linecap: square"/>
   </g>
   <g id="patch_4">
    <path d="M 237.920313 143.1 
L 237.920313 7.2 
" style="fill: none; stroke: #000000; stroke-width: 0.8; stroke-linejoin: miter; stroke-linecap: square"/>
   </g>
   <g id="patch_5">
    <path d="M 42.620312 143.1 
L 237.920313 143.1 
" style="fill: none; stroke: #000000; stroke-width: 0.8; stroke-linejoin: miter; stroke-linecap: square"/>
   </g>
   <g id="patch_6">
    <path d="M 42.620312 7.2 
L 237.920313 7.2 
" style="fill: none; stroke: #000000; stroke-width: 0.8; stroke-linejoin: miter; stroke-linecap: square"/>
   </g>
  </g>
 </g>
 <defs>
  <clipPath id="p4e59ddec63">
   <rect x="42.620312" y="7.2" width="195.3" height="135.9"/>
  </clipPath>
 </defs>
</svg>