<?xml version="1.0" encoding="utf-8" standalone="no"?>
<!DOCTYPE svg PUBLIC "-//W3C//DTD SVG 1.1//EN"
  "http://www.w3.org/Graphics/SVG/1.1/DTD/svg11.dtd">
<svg xmlns:xlink="http://www.w3.org/1999/xlink" width="245.120313pt" height="180.65625pt" viewBox="0 0 245.120313 180.65625" xmlns="http://www.w3.org/2000/svg" version="1.1">
 <metadata>
  <rdf:RDF xmlns:dc="http://purl.org/dc/elements/1.1/" xmlns:cc="http://creativecommons.org/ns#" xmlns:rdf="http://www.w3.org/1999/02/22-rdf-syntax-ns#">
   <cc:Work>
    <dc:type rdf:resource="http://purl.org/dc/dcmitype/StillImage"/>
    <dc:date>2023-08-18T07:07:37.925339</dc:date>
    <dc:format>image/svg+xml</dc:format>
    <dc:creator>
     <cc:Agent>
      <dc:title>Matplotlib v3.5.1, https://matplotlib.org/</dc:title>
     </cc:Agent>
    </dc:creator>
   </cc:Work>
  </rdf:RDF>
 </metadata>
 <defs>
  <style type="text/css">*{stroke-linejoin: round; stroke-linecap: butt}</style>
 </defs>
 <g id="figure_1">
  <g id="patch_1">
   <path d="M 0 180.65625 
L 245.120313 180.65625 
L 245.120313 0 
L 0 0 
L 0 180.65625 
z
" style="fill: none"/>
  </g>
  <g id="axes_1">
   <g id="patch_2">
    <path d="M 42.620312 143.1 
L 237.920313 143.1 
L 237.920313 7.2 
L 42.620312 7.2 
z
" style="fill: #ffffff"/>
   </g>
   <g id="matplotlib.axis_1">
    <g id="xtick_1">
     <g id="line2d_1">
      <defs>
       <path id="m6f3a720570" d="M 0 0 
L 0 3.5 
" style="stroke: #000000; stroke-width: 0.8"/>
      </defs>
      <g>
       <use xlink:href="#m6f3a720570" x="88.39375" y="143.1" style="stroke: #000000; stroke-width: 0.8"/>
      </g>
     </g>
     <g id="text_1">
      <!-- −4 -->
      <g transform="translate(81.022656 157.698438)scale(0.1 -0.1)">
       <defs>
        <path id="DejaVuSans-2212" d="M 678 2272 
L 4684 2272 
L 4684 1741 
L 678 1741 
L 678 2272 
z
" transform="scale(0.015625)"/>
        <path id="DejaVuSans-34" d="M 2419 4116 
L 825 1625 
L 2419 1625 
L 2419 4116 
z
M 2253 4666 
L 3047 4666 
L 3047 1625 
L 3713 1625 
L 3713 1100 
L 3047 1100 
L 3047 0 
L 2419 0 
L 2419 1100 
L 313 1100 
L 313 1709 
L 2253 4666 
z
" transform="scale(0.015625)"/>
       </defs>
       <use xlink:href="#DejaVuSans-2212"/>
       <use xlink:href="#DejaVuSans-34" x="83.789062"/>
      </g>
     </g>
    </g>
    <g id="xtick_2">
     <g id="line2d_2">
      <g>
       <use xlink:href="#m6f3a720570" x="149.425" y="143.1" style="stroke: #000000; stroke-width: 0.8"/>
      </g>
     </g>
     <g id="text_2">
      <!-- −2 -->
      <g transform="translate(142.053907 157.698438)scale(0.1 -0.1)">
       <defs>
        <path id="DejaVuSans-32" d="M 1228 531 
L 3431 531 
L 3431 0 
L 469 0 
L 469 531 
Q 828 903 1448 1529 
Q 2069 2156 2228 2338 
Q 2531 2678 2651 2914 
Q 2772 3150 2772 3378 
Q 2772 3750 2511 3984 
Q 2250 4219 1831 4219 
Q 1534 4219 1204 4116 
Q 875 4013 500 3803 
L 500 4441 
Q 881 4594 1212 4672 
Q 1544 4750 1819 4750 
Q 2544 4750 2975 4387 
Q 3406 4025 3406 3419 
Q 3406 3131 3298 2873 
Q 3191 2616 2906 2266 
Q 2828 2175 2409 1742 
Q 1991 1309 1228 531 
z
" transform="scale(0.015625)"/>
       </defs>
       <use xlink:href="#DejaVuSans-2212"/>
       <use xlink:href="#DejaVuSans-32" x="83.789062"/>
      </g>
     </g>
    </g>
    <g id="xtick_3">
     <g id="line2d_3">
      <g>
       <use xlink:href="#m6f3a720570" x="210.456251" y="143.1" style="stroke: #000000; stroke-width: 0.8"/>
      </g>
     </g>
     <g id="text_3">
      <!-- 0 -->
      <g transform="translate(207.275001 157.698438)scale(0.1 -0.1)">
       <defs>
        <path id="DejaVuSans-30" d="M 2034 4250 
Q 1547 4250 1301 3770 
Q 1056 3291 1056 2328 
Q 1056 1369 1301 889 
Q 1547 409 2034 409 
Q 2525 409 2770 889 
Q 3016 1369 3016 2328 
Q 3016 3291 2770 3770 
Q 2525 4250 2034 4250 
z
M 2034 4750 
Q 2819 4750 3233 4129 
Q 3647 3509 3647 2328 
Q 3647 1150 3233 529 
Q 2819 -91 2034 -91 
Q 1250 -91 836 529 
Q 422 1150 422 2328 
Q 422 3509 836 4129 
Q 1250 4750 2034 4750 
z
" transform="scale(0.015625)"/>
       </defs>
       <use xlink:href="#DejaVuSans-30"/>
      </g>
     </g>
    </g>
    <g id="text_4">
     <!-- x1 -->
     <g transform="translate(134.129687 171.376563)scale(0.1 -0.1)">
      <defs>
       <path id="DejaVuSans-78" d="M 3513 3500 
L 2247 1797 
L 3578 0 
L 2900 0 
L 1881 1375 
L 863 0 
L 184 0 
L 1544 1831 
L 300 3500 
L 978 3500 
L 1906 2253 
L 2834 3500 
L 3513 3500 
z
" transform="scale(0.015625)"/>
       <path id="DejaVuSans-31" d="M 794 531 
L 1825 531 
L 1825 4091 
L 703 3866 
L 703 4441 
L 1819 4666 
L 2450 4666 
L 2450 531 
L 3481 531 
L 3481 0 
L 794 0 
L 794 531 
z
" transform="scale(0.015625)"/>
      </defs>
      <use xlink:href="#DejaVuSans-78"/>
      <use xlink:href="#DejaVuSans-31" x="59.179688"/>
     </g>
    </g>
   </g>
   <g id="matplotlib.axis_2">
    <g id="ytick_1">
     <g id="line2d_4">
      <defs>
       <path id="m1af605cfd9" d="M 0 0 
L -3.5 0 
" style="stroke: #000000; stroke-width: 0.8"/>
      </defs>
      <g>
       <use xlink:href="#m1af605cfd9" x="42.620312" y="143.1" style="stroke: #000000; stroke-width: 0.8"/>
      </g>
     </g>
     <g id="text_5">
      <!-- −3 -->
      <g transform="translate(20.878125 146.899219)scale(0.1 -0.1)">
       <defs>
        <path id="DejaVuSans-33" d="M 2597 2516 
Q 3050 2419 3304 2112 
Q 3559 1806 3559 1356 
Q 3559 666 3084 287 
Q 2609 -91 1734 -91 
Q 1441 -91 1130 -33 
Q 819 25 488 141 
L 488 750 
Q 750 597 1062 519 
Q 1375 441 1716 441 
Q 2309 441 2620 675 
Q 2931 909 2931 1356 
Q 2931 1769 2642 2001 
Q 2353 2234 1838 2234 
L 1294 2234 
L 1294 2753 
L 1863 2753 
Q 2328 2753 2575 2939 
Q 2822 3125 2822 3475 
Q 2822 3834 2567 4026 
Q 2313 4219 1838 4219 
Q 1578 4219 1281 4162 
Q 984 4106 628 3988 
L 628 4550 
Q 988 4650 1302 4700 
Q 1616 4750 1894 4750 
Q 2613 4750 3031 4423 
Q 3450 4097 3450 3541 
Q 3450 3153 3228 2886 
Q 3006 2619 2597 2516 
z
" transform="scale(0.015625)"/>
       </defs>
       <use xlink:href="#DejaVuSans-2212"/>
       <use xlink:href="#DejaVuSans-33" x="83.789062"/>
      </g>
     </g>
    </g>
    <g id="ytick_2">
     <g id="line2d_5">
      <g>
       <use xlink:href="#m1af605cfd9" x="42.620312" y="108.253846" style="stroke: #000000; stroke-width: 0.8"/>
      </g>
     </g>
     <g id="text_6">
      <!-- −2 -->
      <g transform="translate(20.878125 112.053065)scale(0.1 -0.1)">
       <use xlink:href="#DejaVuSans-2212"/>
       <use xlink:href="#DejaVuSans-32" x="83.789062"/>
      </g>
     </g>
    </g>
    <g id="ytick_3">
     <g id="line2d_6">
      <g>
       <use xlink:href="#m1af605cfd9" x="42.620312" y="73.407692" style="stroke: #000000; stroke-width: 0.8"/>
      </g>
     </g>
     <g id="text_7">
      <!-- −1 -->
      <g transform="translate(20.878125 77.206911)scale(0.1 -0.1)">
       <use xlink:href="#DejaVuSans-2212"/>
       <use xlink:href="#DejaVuSans-31" x="83.789062"/>
      </g>
     </g>
    </g>
    <g id="ytick_4">
     <g id="line2d_7">
      <g>
       <use xlink:href="#m1af605cfd9" x="42.620312" y="38.561538" style="stroke: #000000; stroke-width: 0.8"/>
      </g>
     </g>
     <g id="text_8">
      <!-- 0 -->
      <g transform="translate(29.257812 42.360757)scale(0.1 -0.1)">
       <use xlink:href="#DejaVuSans-30"/>
      </g>
     </g>
    </g>
    <g id="text_9">
     <!-- x2 -->
     <g transform="translate(14.798437 81.290625)rotate(-90)scale(0.1 -0.1)">
      <use xlink:href="#DejaVuSans-78"/>
      <use xlink:href="#DejaVuSans-32" x="59.179688"/>
     </g>
    </g>
   </g>
   <g id="line2d_8">
    <path d="M 57.878125 108.253846 
L 118.909345 38.561538 
L 150.30966 38.561538 
L 169.853409 38.561538 
L 182.748839 38.561538 
L 191.45862 38.561538 
L 197.40211 38.561538 
L 201.47704 38.561538 
L 204.277004 38.561538 
L 206.202904 38.561538 
L 207.528241 38.561538 
L 208.440503 38.561538 
L 209.068504 38.561538 
L 209.500842 38.561538 
L 209.798486 38.561538 
L 210.003402 38.561538 
L 210.144479 38.561538 
L 210.241606 38.561538 
L 210.308475 38.561538 
L 210.354512 38.561538 
L 210.386207 38.561538 
" clip-path="url(#p15c6aa45f6)" style="fill: none; stroke: #ff7f0e; stroke-width: 1.5; stroke-linecap: square"/>
    <defs>
     <path id="m2bdca4118c" d="M 0 3 
C 0.795609 3 1.55874 2.683901 2.12132 2.12132 
C 2.683901 1.55874 3 0.795609 3 0 
C 3 -0.795609 2.683901 -1.55874 2.12132 -2.12132 
C 1.55874 -2.683901 0.795609 -3 0 -3 
C -0.795609 -3 -1.55874 -2.683901 -2.12132 -2.12132 
C -2.683901 -1.55874 -3 -0.795609 -3 0 
C -3 0.795609 -2.683901 1.55874 -2.12132 2.12132 
C -1.55874 2.683901 -0.795609 3 0 3 
z
" style="stroke: #ff7f0e"/>
    </defs>
    <g clip-path="url(#p15c6aa45f6)">
     <use xlink:href="#m2bdca4118c" x="57.878125" y="108.253846" style="fill: #ff7f0e; stroke: #ff7f0e"/>
     <use xlink:href="#m2bdca4118c" x="118.909345" y="38.561538" style="fill: #ff7f0e; stroke: #ff7f0e"/>
     <use xlink:href="#m2bdca4118c" x="150.30966" y="38.561538" style="fill: #ff7f0e; stroke: #ff7f0e"/>
     <use xlink:href="#m2bdca4118c" x="169.853409" y="38.561538" style="fill: #ff7f0e; stroke: #ff7f0e"/>
     <use xlink:href="#m2bdca4118c" x="182.748839" y="38.561538" style="fill: #ff7f0e; stroke: #ff7f0e"/>
     <use xlink:href="#m2bdca4118c" x="191.45862" y="38.561538" style="fill: #ff7f0e; stroke: #ff7f0e"/>
     <use xlink:href="#m2bdca4118c" x="197.40211" y="38.561538" style="fill: #ff7f0e; stroke: #ff7f0e"/>
     <use xlink:href="#m2bdca4118c" x="201.47704" y="38.561538" style="fill: #ff7f0e; stroke: #ff7f0e"/>
     <use xlink:href="#m2bdca4118c" x="204.277004" y="38.561538" style="fill: #ff7f0e; stroke: #ff7f0e"/>
     <use xlink:href="#m2bdca4118c" x="206.202904" y="38.561538" style="fill: #ff7f0e; stroke: #ff7f0e"/>
     <use xlink:href="#m2bdca4118c" x="207.528241" y="38.561538" style="fill: #ff7f0e; stroke: #ff7f0e"/>
     <use xlink:href="#m2bdca4118c" x="208.440503" y="38.561538" style="fill: #ff7f0e; stroke: #ff7f0e"/>
     <use xlink:href="#m2bdca4118c" x="209.068504" y="38.561538" style="fill: #ff7f0e; stroke: #ff7f0e"/>
     <use xlink:href="#m2bdca4118c" x="209.500842" y="38.561538" style="fill: #ff7f0e; stroke: #ff7f0e"/>
     <use xlink:href="#m2bdca4118c" x="209.798486" y="38.561538" style="fill: #ff7f0e; stroke: #ff7f0e"/>
     <use xlink:href="#m2bdca4118c" x="210.003402" y="38.561538" style="fill: #ff7f0e; stroke: #ff7f0e"/>
     <use xlink:href="#m2bdca4118c" x="210.144479" y="38.561538" style="fill: #ff7f0e; stroke: #ff7f0e"/>
     <use xlink:href="#m2bdca4118c" x="210.241606" y="38.561538" style="fill: #ff7f0e; stroke: #ff7f0e"/>
     <use xlink:href="#m2bdca4118c" x="210.308475" y="38.561538" style="fill: #ff7f0e; stroke: #ff7f0e"/>
     <use xlink:href="#m2bdca4118c" x="210.354512" y="38.561538" style="fill: #ff7f0e; stroke: #ff7f0e"/>
     <use xlink:href="#m2bdca4118c" x="210.386207" y="38.561538" style="fill: #ff7f0e; stroke: #ff7f0e"/>
    </g>
   </g>
   <g id="PathCollection_1"/>
   <g id="PathCollection_2">
    <path d="M 97.100868 7.2 
L 94.496869 7.855929 
L 91.44531 8.645091 
L 88.393757 9.454749 
L 85.342191 10.284908 
L 83.908323 10.684614 
L 82.290631 11.19569 
L 79.239071 12.182998 
L 76.187512 13.193534 
L 73.307377 14.16923 
L 73.135938 14.236244 
L 70.084378 15.455857 
L 67.032818 16.702275 
L 64.752171 17.653845 
L 63.981244 18.033987 
L 60.929685 19.570384 
L 57.878125 21.138461 
L 54.826565 23.093713 
L 52.48604 24.623076 
L 51.775006 25.220431 
L 48.723432 27.833908 
L 48.409729 28.107691 
L 45.671872 31.452924 
L 45.55989 31.592307 
L 43.880133 35.076923 
L 43.320214 38.561539 
L 43.880133 42.046154 
L 45.55989 45.530769 
L 45.671872 45.670152 
L 48.409729 49.015384 
L 48.723432 49.289168 
L 51.775006 51.902645 
L 52.486042 52.500001 
L 54.826565 54.029361 
L 57.878125 55.984615 
L 60.929685 57.552692 
L 63.981244 59.089089 
L 64.752171 59.469231 
L 67.032818 60.4208 
L 70.084378 61.667219 
L 73.135938 62.886832 
L 73.307377 62.953845 
L 76.187512 63.929541 
L 79.239071 64.940078 
L 82.290631 65.927386 
L 83.908319 66.438459 
L 85.342191 66.838166 
L 88.393757 67.668327 
L 91.44531 68.477984 
L 94.496869 69.267147 
L 97.100868 69.923076 
L 97.548436 70.023948 
L 100.599996 70.69336 
L 103.651563 71.344434 
L 106.703122 71.977164 
L 109.754682 72.591556 
L 112.806249 73.187609 
L 113.968755 73.407692 
L 115.857816 73.731264 
L 118.909375 74.237361 
L 121.960942 74.726869 
L 125.012502 75.199781 
L 128.064069 75.6561 
L 131.115628 76.095825 
L 134.167188 76.518956 
L 136.969651 76.892308 
L 137.218755 76.922609 
L 140.270314 77.278645 
L 143.321874 77.619532 
L 146.373441 77.945268 
L 149.425 78.255852 
L 152.476564 78.551287 
L 155.528127 78.831573 
L 158.57969 79.096705 
L 161.631253 79.346689 
L 164.682813 79.581522 
L 167.734376 79.801203 
L 170.785939 80.005736 
L 173.837499 80.195117 
L 176.889062 80.369347 
L 177.034329 80.37692 
L 179.940626 80.516308 
L 182.992189 80.648722 
L 186.04375 80.767201 
L 189.095313 80.871738 
L 192.146877 80.962338 
L 195.198438 81.038999 
L 198.250001 81.101723 
L 201.301564 81.150507 
L 204.353126 81.185354 
L 207.404689 81.206262 
L 210.456251 81.213231 
L 213.507813 81.206262 
L 216.559376 81.185354 
L 219.610939 81.150507 
L 222.662501 81.101723 
L 225.714063 81.038999 
L 228.765626 80.962338 
L 231.817188 80.871738 
L 234.868751 80.767201 
L 237.920313 80.648722 
" clip-path="url(#p15c6aa45f6)" style="fill: none; stroke: #1f77b4; stroke-width: 1.5"/>
   </g>
   <g id="PathCollection_3">
    <path d="M 42.620312 81.038999 
L 45.671872 81.798647 
L 48.723432 82.544351 
L 51.775006 83.276123 
L 54.263642 83.861536 
L 54.826565 83.984147 
L 57.878125 84.635897 
L 60.929685 85.274743 
L 63.981244 85.900682 
L 67.032818 86.513718 
L 70.084378 87.113847 
L 71.29158 87.346153 
L 73.135938 87.676592 
L 76.187512 88.211301 
L 79.239071 88.733993 
L 82.290631 89.244669 
L 85.342191 89.74333 
L 88.393757 90.229974 
L 91.44531 90.704602 
L 92.277553 90.830769 
L 94.496869 91.145507 
L 97.548436 91.567034 
L 100.599996 91.977319 
L 103.651563 92.376364 
L 106.703122 92.764167 
L 109.754682 93.14073 
L 112.806249 93.506052 
L 115.857816 93.860135 
L 118.909375 94.202976 
L 119.943828 94.315385 
L 121.960942 94.521292 
L 125.012502 94.822237 
L 128.064069 95.112621 
L 131.115628 95.392446 
L 134.167188 95.661713 
L 137.218755 95.92042 
L 140.270314 96.168567 
L 143.321874 96.406152 
L 146.373441 96.633182 
L 149.425 96.84965 
L 152.476564 97.055559 
L 155.528127 97.25091 
L 158.57969 97.435699 
L 161.631253 97.60993 
L 164.682813 97.773602 
L 165.20896 97.800001 
L 167.734376 97.919472 
L 170.785939 98.053879 
L 173.837499 98.17833 
L 176.889062 98.292825 
L 179.940626 98.397363 
L 182.992189 98.491946 
L 186.04375 98.576571 
L 189.095313 98.651243 
L 192.146877 98.715957 
L 195.198438 98.770714 
L 198.250001 98.815518 
L 201.301564 98.850364 
L 204.353126 98.875252 
L 207.404689 98.890187 
L 210.456251 98.895165 
L 213.507813 98.890187 
L 216.559376 98.875252 
L 219.610939 98.850364 
L 222.662501 98.815518 
L 225.714063 98.770714 
L 228.765626 98.715957 
L 231.817188 98.651243 
L 234.868751 98.576571 
L 237.920313 98.491946 
" clip-path="url(#p15c6aa45f6)" style="fill: none; stroke: #1f77b4; stroke-width: 1.5"/>
   </g>
   <g id="PathCollection_4">
    <path d="M 42.620312 98.770713 
L 45.671872 99.313318 
L 48.723432 99.845966 
L 51.775006 100.368661 
L 54.826565 100.881396 
L 57.27387 101.284618 
L 57.878125 101.378794 
L 60.929685 101.844979 
L 63.981244 102.301746 
L 67.032818 102.749096 
L 70.084378 103.187027 
L 73.135938 103.615539 
L 76.187512 104.034638 
L 79.239071 104.444316 
L 81.716227 104.769234 
L 82.290631 104.840712 
L 85.342191 105.211508 
L 88.393757 105.573373 
L 91.44531 105.926301 
L 94.496869 106.270296 
L 97.548436 106.605354 
L 100.599996 106.931478 
L 103.651563 107.248667 
L 106.703122 107.556923 
L 109.754682 107.856243 
L 112.806249 108.146626 
L 113.968764 108.253846 
L 115.857816 108.419576 
L 118.909375 108.6788 
L 121.960942 108.929523 
L 125.012502 109.171742 
L 128.064069 109.405468 
L 131.115628 109.630695 
L 134.167188 109.847419 
L 137.218755 110.055645 
L 140.270314 110.255373 
L 143.321874 110.446602 
L 146.373441 110.629333 
L 149.425 110.803565 
L 152.476564 110.969295 
L 155.528127 111.126526 
L 158.57969 111.275263 
L 161.631253 111.415497 
L 164.682813 111.547229 
L 167.734376 111.670467 
L 169.542874 111.738466 
L 170.785939 111.783032 
L 173.837499 111.884327 
L 176.889062 111.97752 
L 179.940626 112.062609 
L 182.992189 112.139595 
L 186.04375 112.208477 
L 189.095313 112.269257 
L 192.146877 112.32193 
L 195.198438 112.366503 
L 198.250001 112.402969 
L 201.301564 112.431332 
L 204.353126 112.451592 
L 207.404689 112.463745 
L 210.456251 112.467798 
L 213.507813 112.463745 
L 216.559376 112.451592 
L 219.610939 112.431332 
L 222.662501 112.402969 
L 225.714063 112.366503 
L 228.765626 112.32193 
L 231.817188 112.269257 
L 234.868751 112.208477 
L 237.920313 112.139595 
" clip-path="url(#p15c6aa45f6)" style="fill: none; stroke: #1f77b4; stroke-width: 1.5"/>
   </g>
   <g id="PathCollection_5">
    <path d="M 42.620312 112.366503 
L 45.671872 112.808155 
L 48.723432 113.241707 
L 51.775006 113.667157 
L 54.826565 114.084499 
L 57.878125 114.493739 
L 60.929685 114.894875 
L 63.477901 115.223078 
L 63.981244 115.285026 
L 67.032818 115.652848 
L 70.084378 116.012922 
L 73.135938 116.365258 
L 76.187512 116.709846 
L 79.239071 117.046692 
L 82.290631 117.375794 
L 85.342191 117.697154 
L 88.393757 118.01077 
L 91.44531 118.31664 
L 94.496869 118.614767 
L 95.47338 118.70769 
L 97.548436 118.896748 
L 100.599996 119.167362 
L 103.651563 119.430562 
L 106.703122 119.686349 
L 109.754682 119.934722 
L 112.806249 120.175678 
L 115.857816 120.409221 
L 118.909375 120.635353 
L 121.960942 120.854069 
L 125.012502 121.065367 
L 128.064069 121.269256 
L 131.115628 121.465731 
L 134.167188 121.654788 
L 137.218755 121.836432 
L 140.270314 122.010663 
L 143.321874 122.17748 
L 143.605786 122.192311 
L 146.373441 122.330983 
L 149.425 122.476769 
L 152.476564 122.615441 
L 155.528127 122.747002 
L 158.57969 122.871455 
L 161.631253 122.988794 
L 164.682813 123.099019 
L 167.734376 123.202136 
L 170.785939 123.298142 
L 173.837499 123.387034 
L 176.889062 123.468815 
L 179.940626 123.543485 
L 182.992189 123.611044 
L 186.04375 123.671492 
L 189.095313 123.724829 
L 192.146877 123.771052 
L 195.198438 123.810167 
L 198.250001 123.842168 
L 201.301564 123.867058 
L 204.353126 123.884837 
L 207.404689 123.895502 
L 210.456251 123.899059 
L 213.507813 123.895502 
L 216.559376 123.884837 
L 219.610939 123.867058 
L 222.662501 123.842168 
L 225.714063 123.810167 
L 228.765626 123.771052 
L 231.817188 123.724829 
L 234.868751 123.671492 
L 237.920313 123.611044 
" clip-path="url(#p15c6aa45f6)" style="fill: none; stroke: #1f77b4; stroke-width: 1.5"/>
   </g>
   <g id="PathCollection_6">
    <path d="M 42.620312 123.810167 
L 45.671872 124.197739 
L 48.723432 124.578203 
L 51.775006 124.951556 
L 54.826565 125.317795 
L 57.878125 125.676923 
L 60.929685 126.015136 
L 63.981244 126.346516 
L 67.032818 126.671065 
L 70.084378 126.988778 
L 73.135938 127.299663 
L 76.187512 127.603712 
L 79.239071 127.900929 
L 82.290631 128.191314 
L 85.342191 128.474866 
L 88.393757 128.751587 
L 91.44531 129.021472 
L 93.070112 129.161535 
L 94.496869 129.279884 
L 97.548436 129.526437 
L 100.599996 129.766414 
L 103.651563 129.999818 
L 106.703122 130.226647 
L 109.754682 130.446903 
L 112.806249 130.66058 
L 115.857816 130.867685 
L 118.909375 131.068216 
L 121.960942 131.262171 
L 125.012502 131.449548 
L 128.064069 131.630355 
L 131.115628 131.804587 
L 134.167188 131.972242 
L 137.218755 132.133322 
L 140.270314 132.287828 
L 143.321874 132.43576 
L 146.373441 132.577118 
L 147.936485 132.646155 
L 149.425 132.70951 
L 152.476564 132.833055 
L 155.528127 132.950264 
L 158.57969 133.06114 
L 161.631253 133.165679 
L 164.682813 133.263879 
L 167.734376 133.355747 
L 170.785939 133.44128 
L 173.837499 133.520475 
L 176.889062 133.593334 
L 179.940626 133.659858 
L 182.992189 133.720047 
L 186.04375 133.773901 
L 189.095313 133.82142 
L 192.146877 133.8626 
L 195.198438 133.897448 
L 198.250001 133.925958 
L 201.301564 133.948133 
L 204.353126 133.963972 
L 207.404689 133.973474 
L 210.456251 133.976643 
L 213.507813 133.973474 
L 216.559376 133.963972 
L 219.610939 133.948133 
L 222.662501 133.925958 
L 225.714063 133.897448 
L 228.765626 133.8626 
L 231.817188 133.82142 
L 234.868751 133.773901 
L 237.920313 133.720047 
" clip-path="url(#p15c6aa45f6)" style="fill: none; stroke: #1f77b4; stroke-width: 1.5"/>
   </g>
   <g id="PathCollection_7">
    <path d="M 42.620312 133.897445 
L 45.671872 134.242743 
L 48.723432 134.581696 
L 51.775006 134.914323 
L 54.826565 135.240612 
L 57.878125 135.560557 
L 60.929685 135.874175 
L 63.477871 136.130768 
L 63.981244 136.179677 
L 67.032818 136.470059 
L 70.084378 136.754332 
L 73.135938 137.032489 
L 76.187512 137.304535 
L 79.239071 137.570466 
L 82.290631 137.830284 
L 85.342191 138.083987 
L 88.393757 138.331578 
L 91.44531 138.573055 
L 94.496869 138.80842 
L 97.548436 139.037672 
L 100.599996 139.260809 
L 103.651563 139.477831 
L 105.641791 139.615388 
L 106.703122 139.686256 
L 109.754682 139.88411 
L 112.806249 140.076061 
L 115.857816 140.262103 
L 118.909375 140.442243 
L 121.960942 140.616473 
L 125.012502 140.784796 
L 128.064069 140.947215 
L 131.115628 141.103726 
L 134.167188 141.254334 
L 137.218755 141.399034 
L 140.270314 141.537831 
L 143.321874 141.670719 
L 146.373441 141.797698 
L 149.425 141.918775 
L 152.476564 142.033943 
L 155.528127 142.143209 
L 158.57969 142.246565 
L 161.631253 142.344014 
L 164.682813 142.435559 
L 167.734376 142.521202 
L 170.785939 142.60093 
L 173.837499 142.674761 
L 176.889062 142.742678 
L 179.940626 142.804692 
L 182.992189 142.860804 
L 186.04375 142.911006 
L 189.095313 142.9553 
L 192.146877 142.993692 
L 195.198438 143.026174 
L 198.250001 143.052749 
L 201.301564 143.07342 
L 204.353126 143.088189 
L 207.404689 143.097049 
L 210.456251 143.1 
" clip-path="url(#p15c6aa45f6)" style="fill: none; stroke: #1f77b4; stroke-width: 1.5"/>
    <path d="M 210.456251 143.1 
L 213.507813 143.097049 
L 216.559376 143.088189 
L 219.610939 143.07342 
L 222.662501 143.052749 
L 225.714063 143.026174 
L 228.765626 142.993692 
L 231.817188 142.9553 
L 234.868751 142.911006 
L 237.920313 142.860804 
" clip-path="url(#p15c6aa45f6)" style="fill: none; stroke: #1f77b4; stroke-width: 1.5"/>
   </g>
   <g id="PathCollection_8">
    <path d="M 42.620312 143.026174 
L 43.320206 143.1 
" clip-path="url(#p15c6aa45f6)" style="fill: none; stroke: #1f77b4; stroke-width: 1.5"/>
   </g>
   <g id="PathCollection_9"/>
   <g id="patch_3">
    <path d="M 42.620312 143.1 
L 42.620312 7.2 
" style="fill: none; stroke: #000000; stroke-width: 0.8; stroke-linejoin: miter; stroke-linecap: square"/>
   </g>
   <g id="patch_4">
    <path d="M 237.920313 143.1 
L 237.920313 7.2 
" style="fill: none; stroke: #000000; stroke-width: 0.8; stroke-linejoin: miter; stroke-linecap: square"/>
   </g>
   <g id="patch_5">
    <path d="M 42.620312 143.1 
L 237.920313 143.1 
" style="fill: none; stroke: #000000; stroke-width: 0.8; stroke-linejoin: miter; stroke-linecap: square"/>
   </g>
   <g id="patch_6">
    <path d="M 42.620312 7.2 
L 237.920313 7.2 
" style="fill: none; stroke: #000000; stroke-width: 0.8; stroke-linejoin: miter; stroke-linecap: square"/>
   </g>
  </g>
 </g>
 <defs>
  <clipPath id="p15c6aa45f6">
   <rect x="42.620312" y="7.2" width="195.3" height="135.9"/>
  </clipPath>
 </defs>
</svg>